<mxfile host="app.diagrams.net" modified="2023-09-07T14:57:21.189Z" agent="Mozilla/5.0 (Windows NT 10.0; Win64; x64) AppleWebKit/537.36 (KHTML, like Gecko) Chrome/118.0.0.0 Safari/537.36 Edg/118.0.0.0" etag="koOtDpNeVt3kPgnXiizb" version="21.7.1" type="github">
  <diagram id="C5RBs43oDa-KdzZeNtuy" name="Page-1">
    <mxGraphModel dx="812" dy="1632" grid="0" gridSize="10" guides="0" tooltips="1" connect="1" arrows="1" fold="1" page="1" pageScale="1" pageWidth="827" pageHeight="1169" math="0" shadow="0">
      <root>
        <mxCell id="WIyWlLk6GJQsqaUBKTNV-0" />
        <mxCell id="WIyWlLk6GJQsqaUBKTNV-1" parent="WIyWlLk6GJQsqaUBKTNV-0" />
        <mxCell id="5fcDJ9BJbWyk9KCKupC0-104" value="" style="rounded=1;whiteSpace=wrap;html=1;fillColor=#ffe6cc;strokeColor=#d79b00;" parent="WIyWlLk6GJQsqaUBKTNV-1" vertex="1">
          <mxGeometry x="465" y="940" width="115" height="140" as="geometry" />
        </mxCell>
        <mxCell id="5fcDJ9BJbWyk9KCKupC0-86" value="" style="rounded=1;whiteSpace=wrap;html=1;fillColor=#dae8fc;strokeColor=#6c8ebf;" parent="WIyWlLk6GJQsqaUBKTNV-1" vertex="1">
          <mxGeometry x="510" y="570" width="60" height="90" as="geometry" />
        </mxCell>
        <mxCell id="5fcDJ9BJbWyk9KCKupC0-70" value="&lt;br&gt;&lt;br&gt;&lt;br&gt;&lt;br&gt;&lt;br&gt;&lt;br&gt;&lt;br&gt;&lt;br&gt;&lt;br&gt;&lt;br&gt;&lt;br&gt;&lt;br&gt;&lt;br&gt;&lt;br&gt;&lt;br&gt;&lt;br&gt;&lt;br&gt;&lt;br&gt;感知层" style="rounded=1;whiteSpace=wrap;html=1;" parent="WIyWlLk6GJQsqaUBKTNV-1" vertex="1">
          <mxGeometry x="7" y="214" width="176.25" height="300" as="geometry" />
        </mxCell>
        <mxCell id="5fcDJ9BJbWyk9KCKupC0-43" value="&lt;br&gt;&lt;br&gt;&lt;br&gt;&lt;br&gt;&lt;br&gt;&lt;br&gt;工业5G模块&lt;br&gt;（USB串口）" style="shape=step;perimeter=stepPerimeter;whiteSpace=wrap;html=1;fixedSize=1;fillColor=#d5e8d4;strokeColor=#82b366;" parent="WIyWlLk6GJQsqaUBKTNV-1" vertex="1">
          <mxGeometry x="440" y="265.01" width="100" height="189.99" as="geometry" />
        </mxCell>
        <mxCell id="5fcDJ9BJbWyk9KCKupC0-1" value="摄像头" style="rounded=1;whiteSpace=wrap;html=1;fillColor=#e1d5e7;strokeColor=#9673a6;" parent="WIyWlLk6GJQsqaUBKTNV-1" vertex="1">
          <mxGeometry x="19.999999999999993" y="229.38" width="142.5" height="41.25" as="geometry" />
        </mxCell>
        <mxCell id="5fcDJ9BJbWyk9KCKupC0-12" value="&lt;br&gt;&lt;br&gt;&lt;br&gt;&lt;br&gt;&lt;br&gt;&lt;br&gt;&lt;br&gt;传感器" style="rounded=1;whiteSpace=wrap;html=1;fillColor=#f5f5f5;fontColor=#333333;strokeColor=#666666;" parent="WIyWlLk6GJQsqaUBKTNV-1" vertex="1">
          <mxGeometry x="19.999999999999993" y="345" width="142.5" height="130" as="geometry" />
        </mxCell>
        <mxCell id="5fcDJ9BJbWyk9KCKupC0-38" style="edgeStyle=orthogonalEdgeStyle;rounded=0;orthogonalLoop=1;jettySize=auto;html=1;entryX=0;entryY=0.5;entryDx=0;entryDy=0;" parent="WIyWlLk6GJQsqaUBKTNV-1" source="5fcDJ9BJbWyk9KCKupC0-2" target="5fcDJ9BJbWyk9KCKupC0-37" edge="1">
          <mxGeometry relative="1" as="geometry" />
        </mxCell>
        <mxCell id="5fcDJ9BJbWyk9KCKupC0-2" value="毫米波" style="rounded=1;whiteSpace=wrap;html=1;fillColor=#f8cecc;strokeColor=#b85450;" parent="WIyWlLk6GJQsqaUBKTNV-1" vertex="1">
          <mxGeometry x="31.249999999999993" y="415" width="50" height="30" as="geometry" />
        </mxCell>
        <mxCell id="5fcDJ9BJbWyk9KCKupC0-3" value="&lt;br&gt;&lt;br&gt;&lt;br&gt;&lt;br&gt;&lt;br&gt;&lt;br&gt;&lt;br&gt;&lt;br&gt;&lt;br&gt;&lt;br&gt;&lt;br&gt;&lt;br&gt;&lt;br&gt;&lt;br&gt;&lt;br&gt;&lt;br&gt;开发板" style="rounded=1;whiteSpace=wrap;html=1;fillColor=#cdeb8b;strokeColor=#36393d;" parent="WIyWlLk6GJQsqaUBKTNV-1" vertex="1">
          <mxGeometry x="220" y="225" width="200" height="290" as="geometry" />
        </mxCell>
        <mxCell id="5fcDJ9BJbWyk9KCKupC0-6" value="&lt;br&gt;&lt;br&gt;&lt;br&gt;&lt;br&gt;&lt;br&gt;&lt;br&gt;&lt;br&gt;&lt;br&gt;&lt;br&gt;&lt;br&gt;&lt;br&gt;&lt;br&gt;&lt;br&gt;&lt;br&gt;&lt;br&gt;&lt;br&gt;华为云平台" style="rounded=1;whiteSpace=wrap;html=1;fillColor=#f9f7ed;strokeColor=#36393d;" parent="WIyWlLk6GJQsqaUBKTNV-1" vertex="1">
          <mxGeometry x="550" y="215" width="270" height="300" as="geometry" />
        </mxCell>
        <mxCell id="5fcDJ9BJbWyk9KCKupC0-13" value="预训练模型" style="rounded=1;whiteSpace=wrap;html=1;fillColor=#eeeeee;strokeColor=#36393d;" parent="WIyWlLk6GJQsqaUBKTNV-1" vertex="1">
          <mxGeometry x="238" y="235.01" width="84" height="30" as="geometry" />
        </mxCell>
        <mxCell id="5fcDJ9BJbWyk9KCKupC0-19" style="edgeStyle=orthogonalEdgeStyle;rounded=0;orthogonalLoop=1;jettySize=auto;html=1;" parent="WIyWlLk6GJQsqaUBKTNV-1" source="5fcDJ9BJbWyk9KCKupC0-15" target="5fcDJ9BJbWyk9KCKupC0-17" edge="1">
          <mxGeometry relative="1" as="geometry" />
        </mxCell>
        <mxCell id="5fcDJ9BJbWyk9KCKupC0-15" value="RSTP推流" style="rounded=1;whiteSpace=wrap;html=1;fillColor=#f9f7ed;strokeColor=#36393d;" parent="WIyWlLk6GJQsqaUBKTNV-1" vertex="1">
          <mxGeometry x="270" y="285" width="62" height="30" as="geometry" />
        </mxCell>
        <mxCell id="5fcDJ9BJbWyk9KCKupC0-60" style="edgeStyle=orthogonalEdgeStyle;rounded=0;orthogonalLoop=1;jettySize=auto;html=1;entryX=0;entryY=0.5;entryDx=0;entryDy=0;" parent="WIyWlLk6GJQsqaUBKTNV-1" source="5fcDJ9BJbWyk9KCKupC0-17" target="5fcDJ9BJbWyk9KCKupC0-58" edge="1">
          <mxGeometry relative="1" as="geometry">
            <Array as="points">
              <mxPoint x="662" y="300" />
              <mxPoint x="662" y="360" />
            </Array>
          </mxGeometry>
        </mxCell>
        <mxCell id="5fcDJ9BJbWyk9KCKupC0-17" value="RSTP推流&lt;br&gt;服务器" style="rounded=1;whiteSpace=wrap;html=1;fillColor=#ffcc99;strokeColor=#36393d;" parent="WIyWlLk6GJQsqaUBKTNV-1" vertex="1">
          <mxGeometry x="568" y="270" width="84" height="60" as="geometry" />
        </mxCell>
        <mxCell id="5fcDJ9BJbWyk9KCKupC0-57" style="edgeStyle=orthogonalEdgeStyle;rounded=0;orthogonalLoop=1;jettySize=auto;html=1;entryX=0;entryY=0.5;entryDx=0;entryDy=0;entryPerimeter=0;" parent="WIyWlLk6GJQsqaUBKTNV-1" source="5fcDJ9BJbWyk9KCKupC0-18" target="5fcDJ9BJbWyk9KCKupC0-56" edge="1">
          <mxGeometry relative="1" as="geometry">
            <Array as="points" />
          </mxGeometry>
        </mxCell>
        <mxCell id="5fcDJ9BJbWyk9KCKupC0-18" value="IOT平台" style="rounded=1;whiteSpace=wrap;html=1;fillColor=#cdeb8b;strokeColor=#36393d;" parent="WIyWlLk6GJQsqaUBKTNV-1" vertex="1">
          <mxGeometry x="568" y="345" width="84" height="60" as="geometry" />
        </mxCell>
        <mxCell id="5fcDJ9BJbWyk9KCKupC0-25" style="edgeStyle=orthogonalEdgeStyle;rounded=0;orthogonalLoop=1;jettySize=auto;html=1;entryX=0;entryY=0.25;entryDx=0;entryDy=0;" parent="WIyWlLk6GJQsqaUBKTNV-1" source="5fcDJ9BJbWyk9KCKupC0-20" target="5fcDJ9BJbWyk9KCKupC0-18" edge="1">
          <mxGeometry relative="1" as="geometry">
            <Array as="points">
              <mxPoint x="370" y="340" />
              <mxPoint x="370" y="360" />
            </Array>
          </mxGeometry>
        </mxCell>
        <mxCell id="5fcDJ9BJbWyk9KCKupC0-20" value="视频推理结果" style="rounded=1;whiteSpace=wrap;html=1;fillColor=#d5e8d4;strokeColor=#82b366;" parent="WIyWlLk6GJQsqaUBKTNV-1" vertex="1">
          <mxGeometry x="238" y="325" width="84" height="30" as="geometry" />
        </mxCell>
        <mxCell id="5fcDJ9BJbWyk9KCKupC0-23" value="" style="endArrow=classic;html=1;rounded=0;entryX=0.25;entryY=0;entryDx=0;entryDy=0;exitX=0.25;exitY=1;exitDx=0;exitDy=0;" parent="WIyWlLk6GJQsqaUBKTNV-1" source="5fcDJ9BJbWyk9KCKupC0-13" target="5fcDJ9BJbWyk9KCKupC0-20" edge="1">
          <mxGeometry width="50" height="50" relative="1" as="geometry">
            <mxPoint x="250" y="265" as="sourcePoint" />
            <mxPoint x="300" y="215" as="targetPoint" />
          </mxGeometry>
        </mxCell>
        <mxCell id="5fcDJ9BJbWyk9KCKupC0-24" value="" style="endArrow=classic;html=1;rounded=0;exitX=0.75;exitY=1;exitDx=0;exitDy=0;entryX=0.5;entryY=0;entryDx=0;entryDy=0;" parent="WIyWlLk6GJQsqaUBKTNV-1" source="5fcDJ9BJbWyk9KCKupC0-13" target="5fcDJ9BJbWyk9KCKupC0-15" edge="1">
          <mxGeometry width="50" height="50" relative="1" as="geometry">
            <mxPoint x="220" y="355" as="sourcePoint" />
            <mxPoint x="270" y="305" as="targetPoint" />
          </mxGeometry>
        </mxCell>
        <mxCell id="5fcDJ9BJbWyk9KCKupC0-30" style="edgeStyle=orthogonalEdgeStyle;rounded=0;orthogonalLoop=1;jettySize=auto;html=1;entryX=0;entryY=0.5;entryDx=0;entryDy=0;" parent="WIyWlLk6GJQsqaUBKTNV-1" source="5fcDJ9BJbWyk9KCKupC0-26" target="5fcDJ9BJbWyk9KCKupC0-28" edge="1">
          <mxGeometry relative="1" as="geometry" />
        </mxCell>
        <mxCell id="5fcDJ9BJbWyk9KCKupC0-26" value="超声波" style="rounded=1;whiteSpace=wrap;html=1;fillColor=#fff2cc;strokeColor=#d6b656;" parent="WIyWlLk6GJQsqaUBKTNV-1" vertex="1">
          <mxGeometry x="62.49999999999999" y="365" width="61.25" height="30" as="geometry" />
        </mxCell>
        <mxCell id="5fcDJ9BJbWyk9KCKupC0-33" style="edgeStyle=orthogonalEdgeStyle;rounded=0;orthogonalLoop=1;jettySize=auto;html=1;entryX=0;entryY=0.5;entryDx=0;entryDy=0;" parent="WIyWlLk6GJQsqaUBKTNV-1" source="5fcDJ9BJbWyk9KCKupC0-28" target="5fcDJ9BJbWyk9KCKupC0-31" edge="1">
          <mxGeometry relative="1" as="geometry" />
        </mxCell>
        <mxCell id="5fcDJ9BJbWyk9KCKupC0-28" value="距离推测" style="rounded=1;whiteSpace=wrap;html=1;fillColor=#fad9d5;strokeColor=#ae4132;" parent="WIyWlLk6GJQsqaUBKTNV-1" vertex="1">
          <mxGeometry x="232" y="365" width="62" height="30" as="geometry" />
        </mxCell>
        <mxCell id="5fcDJ9BJbWyk9KCKupC0-35" style="edgeStyle=orthogonalEdgeStyle;rounded=0;orthogonalLoop=1;jettySize=auto;html=1;entryX=0.01;entryY=0.594;entryDx=0;entryDy=0;entryPerimeter=0;" parent="WIyWlLk6GJQsqaUBKTNV-1" source="5fcDJ9BJbWyk9KCKupC0-31" target="5fcDJ9BJbWyk9KCKupC0-18" edge="1">
          <mxGeometry relative="1" as="geometry" />
        </mxCell>
        <mxCell id="5fcDJ9BJbWyk9KCKupC0-31" value="联合分析判断小孩" style="rounded=1;whiteSpace=wrap;html=1;fillColor=#b1ddf0;strokeColor=#10739e;" parent="WIyWlLk6GJQsqaUBKTNV-1" vertex="1">
          <mxGeometry x="340" y="365" width="60" height="30" as="geometry" />
        </mxCell>
        <mxCell id="5fcDJ9BJbWyk9KCKupC0-34" value="" style="endArrow=classic;html=1;rounded=0;exitX=0.75;exitY=1;exitDx=0;exitDy=0;entryX=0;entryY=0.5;entryDx=0;entryDy=0;" parent="WIyWlLk6GJQsqaUBKTNV-1" source="5fcDJ9BJbWyk9KCKupC0-20" target="5fcDJ9BJbWyk9KCKupC0-31" edge="1">
          <mxGeometry width="50" height="50" relative="1" as="geometry">
            <mxPoint x="230" y="415" as="sourcePoint" />
            <mxPoint x="301" y="375" as="targetPoint" />
          </mxGeometry>
        </mxCell>
        <mxCell id="5fcDJ9BJbWyk9KCKupC0-37" value="本地计算" style="rounded=1;whiteSpace=wrap;html=1;fillColor=#ffe6cc;strokeColor=#d79b00;" parent="WIyWlLk6GJQsqaUBKTNV-1" vertex="1">
          <mxGeometry x="101.25" y="415" width="50" height="30" as="geometry" />
        </mxCell>
        <mxCell id="5fcDJ9BJbWyk9KCKupC0-46" style="edgeStyle=orthogonalEdgeStyle;rounded=0;orthogonalLoop=1;jettySize=auto;html=1;entryX=0.5;entryY=1;entryDx=0;entryDy=0;" parent="WIyWlLk6GJQsqaUBKTNV-1" source="5fcDJ9BJbWyk9KCKupC0-39" target="5fcDJ9BJbWyk9KCKupC0-18" edge="1">
          <mxGeometry relative="1" as="geometry" />
        </mxCell>
        <mxCell id="5fcDJ9BJbWyk9KCKupC0-39" value="人体姿态查询判断" style="rounded=1;whiteSpace=wrap;html=1;fillColor=#d0cee2;strokeColor=#56517e;" parent="WIyWlLk6GJQsqaUBKTNV-1" vertex="1">
          <mxGeometry x="265" y="410" width="110" height="40" as="geometry" />
        </mxCell>
        <mxCell id="5fcDJ9BJbWyk9KCKupC0-40" style="edgeStyle=orthogonalEdgeStyle;rounded=0;orthogonalLoop=1;jettySize=auto;html=1;" parent="WIyWlLk6GJQsqaUBKTNV-1" source="5fcDJ9BJbWyk9KCKupC0-1" target="5fcDJ9BJbWyk9KCKupC0-13" edge="1">
          <mxGeometry relative="1" as="geometry" />
        </mxCell>
        <mxCell id="5fcDJ9BJbWyk9KCKupC0-41" value="" style="endArrow=classic;startArrow=classic;html=1;rounded=0;entryX=0;entryY=0.5;entryDx=0;entryDy=0;exitX=1;exitY=0.5;exitDx=0;exitDy=0;" parent="WIyWlLk6GJQsqaUBKTNV-1" source="5fcDJ9BJbWyk9KCKupC0-37" edge="1">
          <mxGeometry width="50" height="50" relative="1" as="geometry">
            <mxPoint x="160" y="430" as="sourcePoint" />
            <mxPoint x="263.75" y="429.58" as="targetPoint" />
          </mxGeometry>
        </mxCell>
        <mxCell id="5fcDJ9BJbWyk9KCKupC0-42" value="串口通信" style="edgeLabel;html=1;align=center;verticalAlign=middle;resizable=0;points=[];" parent="5fcDJ9BJbWyk9KCKupC0-41" vertex="1" connectable="0">
          <mxGeometry x="0.1546" y="-2" relative="1" as="geometry">
            <mxPoint x="-20" y="-2" as="offset" />
          </mxGeometry>
        </mxCell>
        <mxCell id="5fcDJ9BJbWyk9KCKupC0-53" value="异常处理" style="rounded=1;whiteSpace=wrap;html=1;fillColor=#fa6800;strokeColor=#C73500;fontColor=#000000;" parent="WIyWlLk6GJQsqaUBKTNV-1" vertex="1">
          <mxGeometry x="332" y="245" width="78" height="40" as="geometry" />
        </mxCell>
        <mxCell id="5fcDJ9BJbWyk9KCKupC0-54" value="现场警报、必要措施" style="shape=callout;whiteSpace=wrap;html=1;perimeter=calloutPerimeter;fillColor=#d0cee2;strokeColor=#56517e;" parent="WIyWlLk6GJQsqaUBKTNV-1" vertex="1">
          <mxGeometry x="340" y="165" width="120" height="80" as="geometry" />
        </mxCell>
        <mxCell id="5fcDJ9BJbWyk9KCKupC0-59" style="edgeStyle=orthogonalEdgeStyle;rounded=0;orthogonalLoop=1;jettySize=auto;html=1;entryX=0.5;entryY=1;entryDx=0;entryDy=0;" parent="WIyWlLk6GJQsqaUBKTNV-1" source="5fcDJ9BJbWyk9KCKupC0-56" target="5fcDJ9BJbWyk9KCKupC0-58" edge="1">
          <mxGeometry relative="1" as="geometry" />
        </mxCell>
        <mxCell id="5fcDJ9BJbWyk9KCKupC0-56" value="mysql" style="shape=cylinder3;whiteSpace=wrap;html=1;boundedLbl=1;backgroundOutline=1;size=15;fillColor=#b1ddf0;strokeColor=#10739e;" parent="WIyWlLk6GJQsqaUBKTNV-1" vertex="1">
          <mxGeometry x="707" y="405" width="70" height="70" as="geometry" />
        </mxCell>
        <mxCell id="5fcDJ9BJbWyk9KCKupC0-58" value="后端数据处理" style="shape=hexagon;perimeter=hexagonPerimeter2;whiteSpace=wrap;html=1;fixedSize=1;fillColor=#bac8d3;strokeColor=#23445d;" parent="WIyWlLk6GJQsqaUBKTNV-1" vertex="1">
          <mxGeometry x="682" y="332.5" width="120" height="55" as="geometry" />
        </mxCell>
        <mxCell id="5fcDJ9BJbWyk9KCKupC0-67" value="" style="rounded=1;whiteSpace=wrap;html=1;fillColor=#eeeeee;strokeColor=#36393d;" parent="WIyWlLk6GJQsqaUBKTNV-1" vertex="1">
          <mxGeometry x="677" y="235.01" width="130" height="70" as="geometry" />
        </mxCell>
        <mxCell id="5fcDJ9BJbWyk9KCKupC0-63" value="Vue" style="rounded=1;whiteSpace=wrap;html=1;fillColor=#ffff88;strokeColor=#36393d;" parent="WIyWlLk6GJQsqaUBKTNV-1" vertex="1">
          <mxGeometry x="692" y="255" width="40" height="30" as="geometry" />
        </mxCell>
        <mxCell id="5fcDJ9BJbWyk9KCKupC0-64" value="Three" style="rounded=1;whiteSpace=wrap;html=1;fillColor=#cdeb8b;strokeColor=#36393d;" parent="WIyWlLk6GJQsqaUBKTNV-1" vertex="1">
          <mxGeometry x="762" y="255" width="40" height="30" as="geometry" />
        </mxCell>
        <mxCell id="5fcDJ9BJbWyk9KCKupC0-68" value="" style="endArrow=classic;startArrow=classic;html=1;rounded=0;entryX=0;entryY=0.5;entryDx=0;entryDy=0;exitX=1;exitY=0.5;exitDx=0;exitDy=0;" parent="WIyWlLk6GJQsqaUBKTNV-1" source="5fcDJ9BJbWyk9KCKupC0-63" target="5fcDJ9BJbWyk9KCKupC0-64" edge="1">
          <mxGeometry width="50" height="50" relative="1" as="geometry">
            <mxPoint x="440" y="415" as="sourcePoint" />
            <mxPoint x="490" y="365" as="targetPoint" />
          </mxGeometry>
        </mxCell>
        <mxCell id="5fcDJ9BJbWyk9KCKupC0-69" value="" style="endArrow=classic;startArrow=classic;html=1;rounded=0;entryX=0.5;entryY=1;entryDx=0;entryDy=0;exitX=0.5;exitY=0;exitDx=0;exitDy=0;" parent="WIyWlLk6GJQsqaUBKTNV-1" source="5fcDJ9BJbWyk9KCKupC0-58" target="5fcDJ9BJbWyk9KCKupC0-67" edge="1">
          <mxGeometry width="50" height="50" relative="1" as="geometry">
            <mxPoint x="440" y="415" as="sourcePoint" />
            <mxPoint x="490" y="365" as="targetPoint" />
          </mxGeometry>
        </mxCell>
        <mxCell id="5fcDJ9BJbWyk9KCKupC0-74" value="Controller&lt;br&gt;控制器" style="rounded=1;whiteSpace=wrap;html=1;fillColor=#ffff88;strokeColor=#36393d;" parent="WIyWlLk6GJQsqaUBKTNV-1" vertex="1">
          <mxGeometry x="356" y="674" width="120" height="60" as="geometry" />
        </mxCell>
        <mxCell id="5fcDJ9BJbWyk9KCKupC0-75" value="Model（DB）&lt;br&gt;业务模型" style="rounded=1;whiteSpace=wrap;html=1;fillColor=#cdeb8b;strokeColor=#36393d;" parent="WIyWlLk6GJQsqaUBKTNV-1" vertex="1">
          <mxGeometry x="220" y="750" width="120" height="60" as="geometry" />
        </mxCell>
        <mxCell id="5fcDJ9BJbWyk9KCKupC0-76" value="View&lt;br&gt;视图" style="rounded=1;whiteSpace=wrap;html=1;fillColor=#ffcc99;strokeColor=#36393d;" parent="WIyWlLk6GJQsqaUBKTNV-1" vertex="1">
          <mxGeometry x="500" y="750" width="120" height="60" as="geometry" />
        </mxCell>
        <mxCell id="5fcDJ9BJbWyk9KCKupC0-77" value="" style="endArrow=classic;html=1;rounded=0;exitX=0.75;exitY=0;exitDx=0;exitDy=0;entryX=0;entryY=0.5;entryDx=0;entryDy=0;" parent="WIyWlLk6GJQsqaUBKTNV-1" source="5fcDJ9BJbWyk9KCKupC0-75" target="5fcDJ9BJbWyk9KCKupC0-74" edge="1">
          <mxGeometry width="50" height="50" relative="1" as="geometry">
            <mxPoint x="390" y="740" as="sourcePoint" />
            <mxPoint x="440" y="690" as="targetPoint" />
          </mxGeometry>
        </mxCell>
        <mxCell id="5fcDJ9BJbWyk9KCKupC0-78" value="" style="endArrow=classic;html=1;rounded=0;exitX=0.25;exitY=1;exitDx=0;exitDy=0;entryX=1;entryY=0.5;entryDx=0;entryDy=0;" parent="WIyWlLk6GJQsqaUBKTNV-1" source="5fcDJ9BJbWyk9KCKupC0-74" target="5fcDJ9BJbWyk9KCKupC0-75" edge="1">
          <mxGeometry width="50" height="50" relative="1" as="geometry">
            <mxPoint x="390" y="740" as="sourcePoint" />
            <mxPoint x="440" y="690" as="targetPoint" />
          </mxGeometry>
        </mxCell>
        <mxCell id="5fcDJ9BJbWyk9KCKupC0-79" value="" style="endArrow=classic;html=1;rounded=0;exitX=0.25;exitY=0;exitDx=0;exitDy=0;entryX=0.5;entryY=1;entryDx=0;entryDy=0;" parent="WIyWlLk6GJQsqaUBKTNV-1" source="5fcDJ9BJbWyk9KCKupC0-76" target="5fcDJ9BJbWyk9KCKupC0-86" edge="1">
          <mxGeometry width="50" height="50" relative="1" as="geometry">
            <mxPoint x="390" y="740" as="sourcePoint" />
            <mxPoint x="530" y="700" as="targetPoint" />
          </mxGeometry>
        </mxCell>
        <mxCell id="5fcDJ9BJbWyk9KCKupC0-80" value="" style="endArrow=classic;html=1;rounded=0;exitX=0.75;exitY=1;exitDx=0;exitDy=0;entryX=0;entryY=0.5;entryDx=0;entryDy=0;" parent="WIyWlLk6GJQsqaUBKTNV-1" source="5fcDJ9BJbWyk9KCKupC0-74" target="5fcDJ9BJbWyk9KCKupC0-76" edge="1">
          <mxGeometry width="50" height="50" relative="1" as="geometry">
            <mxPoint x="390" y="740" as="sourcePoint" />
            <mxPoint x="440" y="690" as="targetPoint" />
          </mxGeometry>
        </mxCell>
        <mxCell id="5fcDJ9BJbWyk9KCKupC0-81" value="用户" style="shape=umlActor;verticalLabelPosition=bottom;verticalAlign=top;html=1;outlineConnect=0;fillColor=#fff2cc;strokeColor=#d6b656;" parent="WIyWlLk6GJQsqaUBKTNV-1" vertex="1">
          <mxGeometry x="525" y="580" width="30" height="60" as="geometry" />
        </mxCell>
        <mxCell id="5fcDJ9BJbWyk9KCKupC0-83" value="" style="endArrow=classic;html=1;rounded=0;entryX=0.5;entryY=0;entryDx=0;entryDy=0;exitX=0;exitY=0.5;exitDx=0;exitDy=0;" parent="WIyWlLk6GJQsqaUBKTNV-1" source="5fcDJ9BJbWyk9KCKupC0-86" target="5fcDJ9BJbWyk9KCKupC0-74" edge="1">
          <mxGeometry width="50" height="50" relative="1" as="geometry">
            <mxPoint x="510" y="630" as="sourcePoint" />
            <mxPoint x="440" y="690" as="targetPoint" />
          </mxGeometry>
        </mxCell>
        <mxCell id="5fcDJ9BJbWyk9KCKupC0-84" value="请求" style="text;html=1;align=center;verticalAlign=middle;resizable=0;points=[];autosize=1;strokeColor=none;fillColor=none;" parent="WIyWlLk6GJQsqaUBKTNV-1" vertex="1">
          <mxGeometry x="440" y="610" width="50" height="30" as="geometry" />
        </mxCell>
        <mxCell id="5fcDJ9BJbWyk9KCKupC0-87" value="需求" style="text;html=1;align=center;verticalAlign=middle;resizable=0;points=[];autosize=1;strokeColor=none;fillColor=none;" parent="WIyWlLk6GJQsqaUBKTNV-1" vertex="1">
          <mxGeometry x="350" y="750" width="50" height="30" as="geometry" />
        </mxCell>
        <mxCell id="5fcDJ9BJbWyk9KCKupC0-88" value="数据" style="text;html=1;align=center;verticalAlign=middle;resizable=0;points=[];autosize=1;strokeColor=none;fillColor=none;" parent="WIyWlLk6GJQsqaUBKTNV-1" vertex="1">
          <mxGeometry x="295" y="704" width="50" height="30" as="geometry" />
        </mxCell>
        <mxCell id="5fcDJ9BJbWyk9KCKupC0-89" value="响应（JSON）" style="text;html=1;align=center;verticalAlign=middle;resizable=0;points=[];autosize=1;strokeColor=none;fillColor=none;" parent="WIyWlLk6GJQsqaUBKTNV-1" vertex="1">
          <mxGeometry x="530" y="704" width="100" height="30" as="geometry" />
        </mxCell>
        <mxCell id="5fcDJ9BJbWyk9KCKupC0-95" style="edgeStyle=orthogonalEdgeStyle;rounded=0;orthogonalLoop=1;jettySize=auto;html=1;entryX=0;entryY=0.5;entryDx=0;entryDy=0;entryPerimeter=0;" parent="WIyWlLk6GJQsqaUBKTNV-1" source="5fcDJ9BJbWyk9KCKupC0-90" target="5fcDJ9BJbWyk9KCKupC0-93" edge="1">
          <mxGeometry relative="1" as="geometry" />
        </mxCell>
        <mxCell id="5fcDJ9BJbWyk9KCKupC0-90" value="IOT平台" style="rounded=1;whiteSpace=wrap;html=1;fillColor=#e1d5e7;strokeColor=#9673a6;" parent="WIyWlLk6GJQsqaUBKTNV-1" vertex="1">
          <mxGeometry x="278" y="1024" width="69.5" height="45" as="geometry" />
        </mxCell>
        <mxCell id="5fcDJ9BJbWyk9KCKupC0-96" style="edgeStyle=orthogonalEdgeStyle;rounded=0;orthogonalLoop=1;jettySize=auto;html=1;entryX=0;entryY=0.5;entryDx=0;entryDy=0;" parent="WIyWlLk6GJQsqaUBKTNV-1" source="5fcDJ9BJbWyk9KCKupC0-91" target="5fcDJ9BJbWyk9KCKupC0-92" edge="1">
          <mxGeometry relative="1" as="geometry">
            <mxPoint x="460" y="990" as="targetPoint" />
            <Array as="points">
              <mxPoint x="440" y="972" />
              <mxPoint x="440" y="1008" />
            </Array>
          </mxGeometry>
        </mxCell>
        <mxCell id="5fcDJ9BJbWyk9KCKupC0-91" value="RSTP视频推流服务器" style="rounded=1;whiteSpace=wrap;html=1;fillColor=#d5e8d4;strokeColor=#82b366;" parent="WIyWlLk6GJQsqaUBKTNV-1" vertex="1">
          <mxGeometry x="278" y="949.5" width="127" height="45" as="geometry" />
        </mxCell>
        <mxCell id="5fcDJ9BJbWyk9KCKupC0-92" value="" style="rounded=1;whiteSpace=wrap;html=1;fillColor=#fff2cc;strokeColor=#d6b656;" parent="WIyWlLk6GJQsqaUBKTNV-1" vertex="1">
          <mxGeometry x="465" y="948.5" width="75" height="119.5" as="geometry" />
        </mxCell>
        <mxCell id="5fcDJ9BJbWyk9KCKupC0-97" style="edgeStyle=orthogonalEdgeStyle;rounded=0;orthogonalLoop=1;jettySize=auto;html=1;entryX=0;entryY=0.75;entryDx=0;entryDy=0;exitX=1;exitY=0;exitDx=0;exitDy=16.187500000000114;exitPerimeter=0;" parent="WIyWlLk6GJQsqaUBKTNV-1" source="5fcDJ9BJbWyk9KCKupC0-93" target="5fcDJ9BJbWyk9KCKupC0-92" edge="1">
          <mxGeometry relative="1" as="geometry">
            <mxPoint x="430" y="1040" as="sourcePoint" />
          </mxGeometry>
        </mxCell>
        <mxCell id="5fcDJ9BJbWyk9KCKupC0-93" value="mysql" style="shape=cylinder3;whiteSpace=wrap;html=1;boundedLbl=1;backgroundOutline=1;size=8.375000000000227;fillColor=#dae8fc;strokeColor=#6c8ebf;" parent="WIyWlLk6GJQsqaUBKTNV-1" vertex="1">
          <mxGeometry x="390" y="1022.5" width="50" height="48" as="geometry" />
        </mxCell>
        <mxCell id="5fcDJ9BJbWyk9KCKupC0-98" value="" style="endArrow=none;html=1;rounded=0;entryX=0.002;entryY=0.628;entryDx=0;entryDy=0;entryPerimeter=0;exitX=1.002;exitY=0.628;exitDx=0;exitDy=0;exitPerimeter=0;" parent="WIyWlLk6GJQsqaUBKTNV-1" source="5fcDJ9BJbWyk9KCKupC0-92" target="5fcDJ9BJbWyk9KCKupC0-92" edge="1">
          <mxGeometry width="50" height="50" relative="1" as="geometry">
            <mxPoint x="380" y="1020" as="sourcePoint" />
            <mxPoint x="430" y="970" as="targetPoint" />
          </mxGeometry>
        </mxCell>
        <mxCell id="5fcDJ9BJbWyk9KCKupC0-100" value="opencv处理" style="text;html=1;strokeColor=none;fillColor=none;align=center;verticalAlign=middle;whiteSpace=wrap;rounded=0;" parent="WIyWlLk6GJQsqaUBKTNV-1" vertex="1">
          <mxGeometry x="467.5" y="970" width="70" height="30" as="geometry" />
        </mxCell>
        <mxCell id="5fcDJ9BJbWyk9KCKupC0-102" value="数据分析" style="text;html=1;strokeColor=none;fillColor=none;align=center;verticalAlign=middle;whiteSpace=wrap;rounded=0;" parent="WIyWlLk6GJQsqaUBKTNV-1" vertex="1">
          <mxGeometry x="472.5" y="1030.5" width="60" height="30" as="geometry" />
        </mxCell>
        <mxCell id="5fcDJ9BJbWyk9KCKupC0-105" value="回应&lt;br&gt;请求" style="text;html=1;strokeColor=none;fillColor=none;align=center;verticalAlign=middle;whiteSpace=wrap;rounded=0;" parent="WIyWlLk6GJQsqaUBKTNV-1" vertex="1">
          <mxGeometry x="540" y="975" width="40" height="70" as="geometry" />
        </mxCell>
        <mxCell id="5fcDJ9BJbWyk9KCKupC0-106" value="" style="rounded=1;whiteSpace=wrap;html=1;fillColor=#dae8fc;strokeColor=#6c8ebf;" parent="WIyWlLk6GJQsqaUBKTNV-1" vertex="1">
          <mxGeometry x="612.5" y="942" width="105" height="138" as="geometry" />
        </mxCell>
        <mxCell id="5fcDJ9BJbWyk9KCKupC0-107" value="视频展示" style="label;whiteSpace=wrap;html=1;image=img/clipart/Gear_128x128.png;fillColor=#d5e8d4;strokeColor=#82b366;" parent="WIyWlLk6GJQsqaUBKTNV-1" vertex="1">
          <mxGeometry x="625" y="966.25" width="80" height="37.5" as="geometry" />
        </mxCell>
        <mxCell id="5fcDJ9BJbWyk9KCKupC0-110" value="" style="shape=tape;whiteSpace=wrap;html=1;fillColor=#e1d5e7;strokeColor=#9673a6;" parent="WIyWlLk6GJQsqaUBKTNV-1" vertex="1">
          <mxGeometry x="620" y="1020.5" width="50" height="40" as="geometry" />
        </mxCell>
        <mxCell id="5fcDJ9BJbWyk9KCKupC0-111" value="" style="curved=1;endArrow=classic;html=1;rounded=0;fillColor=#fff2cc;strokeColor=#d6b656;" parent="WIyWlLk6GJQsqaUBKTNV-1" edge="1">
          <mxGeometry width="50" height="50" relative="1" as="geometry">
            <mxPoint x="625" y="1049" as="sourcePoint" />
            <mxPoint x="665" y="1039" as="targetPoint" />
            <Array as="points">
              <mxPoint x="645" y="1049" />
              <mxPoint x="645" y="1039" />
              <mxPoint x="635" y="1029" />
            </Array>
          </mxGeometry>
        </mxCell>
        <mxCell id="5fcDJ9BJbWyk9KCKupC0-113" value="&lt;font style=&quot;font-size: 12px;&quot;&gt;&lt;b&gt;可视化数据&lt;/b&gt;&lt;/font&gt;" style="text;html=1;align=center;verticalAlign=middle;whiteSpace=wrap;rounded=0;" parent="WIyWlLk6GJQsqaUBKTNV-1" vertex="1">
          <mxGeometry x="670" y="1024" width="43" height="30" as="geometry" />
        </mxCell>
        <mxCell id="5fcDJ9BJbWyk9KCKupC0-115" value="" style="endArrow=classic;html=1;rounded=0;exitX=0;exitY=0.25;exitDx=0;exitDy=0;entryX=0;entryY=0.5;entryDx=0;entryDy=0;" parent="WIyWlLk6GJQsqaUBKTNV-1" source="5fcDJ9BJbWyk9KCKupC0-105" target="5fcDJ9BJbWyk9KCKupC0-107" edge="1">
          <mxGeometry width="50" height="50" relative="1" as="geometry">
            <mxPoint x="470" y="1066" as="sourcePoint" />
            <mxPoint x="520" y="1016" as="targetPoint" />
          </mxGeometry>
        </mxCell>
        <mxCell id="5fcDJ9BJbWyk9KCKupC0-116" value="" style="endArrow=classic;html=1;rounded=0;exitX=0;exitY=1;exitDx=0;exitDy=0;entryX=0;entryY=0.65;entryDx=0;entryDy=0;entryPerimeter=0;" parent="WIyWlLk6GJQsqaUBKTNV-1" source="5fcDJ9BJbWyk9KCKupC0-105" target="5fcDJ9BJbWyk9KCKupC0-110" edge="1">
          <mxGeometry width="50" height="50" relative="1" as="geometry">
            <mxPoint x="470" y="1066" as="sourcePoint" />
            <mxPoint x="520" y="1016" as="targetPoint" />
          </mxGeometry>
        </mxCell>
        <mxCell id="Bgb2d7PLO2-BZdLounZA-7" style="edgeStyle=orthogonalEdgeStyle;rounded=0;orthogonalLoop=1;jettySize=auto;html=1;" edge="1" parent="WIyWlLk6GJQsqaUBKTNV-1" source="Bgb2d7PLO2-BZdLounZA-0" target="Bgb2d7PLO2-BZdLounZA-6">
          <mxGeometry relative="1" as="geometry" />
        </mxCell>
        <mxCell id="Bgb2d7PLO2-BZdLounZA-0" value="ESP32Cam" style="rounded=1;whiteSpace=wrap;html=1;" vertex="1" parent="WIyWlLk6GJQsqaUBKTNV-1">
          <mxGeometry x="395" y="-315" width="120" height="60" as="geometry" />
        </mxCell>
        <mxCell id="Bgb2d7PLO2-BZdLounZA-4" style="edgeStyle=orthogonalEdgeStyle;rounded=0;orthogonalLoop=1;jettySize=auto;html=1;entryX=0.5;entryY=1;entryDx=0;entryDy=0;" edge="1" parent="WIyWlLk6GJQsqaUBKTNV-1" source="Bgb2d7PLO2-BZdLounZA-1" target="Bgb2d7PLO2-BZdLounZA-0">
          <mxGeometry relative="1" as="geometry" />
        </mxCell>
        <mxCell id="Bgb2d7PLO2-BZdLounZA-1" value="毫米波人体追踪" style="rounded=1;whiteSpace=wrap;html=1;" vertex="1" parent="WIyWlLk6GJQsqaUBKTNV-1">
          <mxGeometry x="217" y="-233" width="120" height="60" as="geometry" />
        </mxCell>
        <mxCell id="Bgb2d7PLO2-BZdLounZA-3" style="edgeStyle=orthogonalEdgeStyle;rounded=0;orthogonalLoop=1;jettySize=auto;html=1;entryX=0.5;entryY=0;entryDx=0;entryDy=0;" edge="1" parent="WIyWlLk6GJQsqaUBKTNV-1" source="Bgb2d7PLO2-BZdLounZA-2" target="Bgb2d7PLO2-BZdLounZA-0">
          <mxGeometry relative="1" as="geometry" />
        </mxCell>
        <mxCell id="Bgb2d7PLO2-BZdLounZA-2" value="摄像头" style="rounded=1;whiteSpace=wrap;html=1;" vertex="1" parent="WIyWlLk6GJQsqaUBKTNV-1">
          <mxGeometry x="217" y="-415" width="120" height="60" as="geometry" />
        </mxCell>
        <mxCell id="Bgb2d7PLO2-BZdLounZA-5" value="串口" style="text;html=1;strokeColor=none;fillColor=none;align=center;verticalAlign=middle;whiteSpace=wrap;rounded=0;" vertex="1" parent="WIyWlLk6GJQsqaUBKTNV-1">
          <mxGeometry x="382" y="-210" width="60" height="30" as="geometry" />
        </mxCell>
        <mxCell id="Bgb2d7PLO2-BZdLounZA-6" value="后端" style="rounded=1;whiteSpace=wrap;html=1;" vertex="1" parent="WIyWlLk6GJQsqaUBKTNV-1">
          <mxGeometry x="646" y="-315" width="120" height="60" as="geometry" />
        </mxCell>
        <mxCell id="Bgb2d7PLO2-BZdLounZA-8" value="局域网http" style="text;html=1;strokeColor=none;fillColor=none;align=center;verticalAlign=middle;whiteSpace=wrap;rounded=0;" vertex="1" parent="WIyWlLk6GJQsqaUBKTNV-1">
          <mxGeometry x="547" y="-314" width="60" height="30" as="geometry" />
        </mxCell>
      </root>
    </mxGraphModel>
  </diagram>
</mxfile>
